<?xml version="1.0" standalone="no"?>
<!DOCTYPE svg PUBLIC "-//W3C//DTD SVG 1.1//EN" "http://www.w3.org/Graphics/SVG/1.1/DTD/svg11.dtd">
<svg width="100%" height="100%" viewBox="0 0 1060 718" version="1.1" xmlns="http://www.w3.org/2000/svg" xmlns:xlink="http://www.w3.org/1999/xlink" xml:space="preserve" style="fill-rule:evenodd;clip-rule:evenodd;stroke-linecap:round;stroke-linejoin:round;stroke-miterlimit:1.41421;">
    <g id="Data">
        <g id="Sites">
            <circle cx="413.371" cy="253.537" r="2.5" style="fill:rgb(0,127,255);"/>
            <circle cx="315.072" cy="254.144" r="2.5" style="fill:rgb(0,127,255);"/>
            <circle cx="572.552" cy="190.091" r="2.5" style="fill:rgb(0,127,255);"/>
            <circle cx="517.378" cy="253.51" r="2.5" style="fill:rgb(0,127,255);"/>
            <circle cx="467.277" cy="414.593" r="2.5" style="fill:rgb(0,127,255);"/>
            <circle cx="362.002" cy="415.227" r="2.5" style="fill:rgb(0,127,255);"/>
            <circle cx="254.825" cy="413.959" r="2.5" style="fill:rgb(0,127,255);"/>
            <circle cx="309.999" cy="564.896" r="2.5" style="fill:rgb(0,127,255);"/>
            <circle cx="410.834" cy="566.798" r="2.5" style="fill:rgb(0,127,255);"/>
            <circle cx="518.012" cy="564.896" r="2.5" style="fill:rgb(0,127,255);"/>
            <circle cx="612.506" cy="521.771" r="2.5" style="fill:rgb(0,127,255);"/>
            <circle cx="704.463" cy="476.109" r="2.5" style="fill:rgb(0,127,255);"/>
            <circle cx="660.07" cy="403.178" r="2.5" style="fill:rgb(0,127,255);"/>
            <circle cx="755.832" cy="405.081" r="2.5" style="fill:rgb(0,127,255);"/>
            <circle cx="769.15" cy="618.167" r="2.5" style="fill:rgb(0,127,255);"/>
        </g>
        <g id="Paths">
            <path d="M1058.37,716.628C1056.12,716.436 1051.61,716.052 1048.22,715.994C1029.72,715.677 979.941,714.937 947.386,714.726C915.888,714.521 884.382,715.43 852.892,714.726C815.052,713.88 750.788,713.669 720.347,709.652C702.636,707.316 682.296,700.774 670.246,690.627C658.197,680.48 651.855,662.934 648.05,648.77C644.319,634.886 644.44,619.711 647.415,605.646C650.903,589.157 658.831,561.253 668.978,549.837C678.127,539.544 695.183,541.357 708.297,537.154C724.786,531.869 750.788,525.104 767.911,518.128C782.974,511.991 801.417,508.192 811.036,495.297C820.654,482.402 824.142,458.303 825.622,440.757C827.052,423.799 825.727,402.072 819.914,390.022C814.66,379.131 802.251,372.168 790.742,368.46C774.993,363.386 747.374,360.53 725.42,359.581C691.174,358.102 625.117,360.11 585.265,359.581C552.265,359.144 513.047,356.617 486.307,356.41C465.803,356.252 445.322,357.826 424.823,358.34C403.583,358.873 379.162,359.714 358.868,359.609C340.255,359.512 321.601,359.345 303.059,357.706C283.928,356.015 259.723,355.909 244.08,349.462C229.813,343.581 217.539,332.005 209.2,319.021C200.85,306.02 195.864,287.996 193.979,271.457C192.077,254.756 191.337,234.991 197.784,218.819C204.232,202.647 219.241,184.784 232.665,174.426C245.594,164.449 262.295,159.781 278.326,156.669C296.295,153.181 319.754,154.436 340.476,153.498C363.836,152.441 398.082,155.189 418.481,150.327C435.163,146.351 454.083,139.05 462.874,124.325C471.964,109.1 471.647,73.673 473.021,58.977C473.732,51.373 471.99,41.222 471.119,36.146" style="fill:none;stroke-width:1px;stroke:black;"/>
            <path d="M1054.54,697.603C1033.96,697.709 992.811,697.92 963.216,698.237C934.464,698.545 902.545,699.188 876.966,699.505C854.559,699.783 832.138,700.925 809.742,700.14C785.643,699.294 751.609,697.814 732.372,694.432C718.993,692.08 702.776,685.346 694.32,679.846C688.072,675.781 684.066,668.476 681.637,661.429C678.466,652.23 676.457,636.168 675.295,624.647C674.212,613.918 671.701,602.133 674.661,592.303C677.62,582.473 684.608,572.384 693.052,565.667C702.353,558.268 718.525,551.292 730.469,547.91C741.483,544.791 753.554,547.914 764.715,545.373C777.716,542.414 797.059,537.129 808.474,530.153C818.812,523.835 826.943,513.888 833.207,503.517C839.655,492.841 843.671,478.784 847.159,466.1C850.634,453.466 855.239,440.471 854.135,427.415C852.867,412.405 845.045,388.729 839.549,376.045C835.464,366.619 829.932,356.657 821.158,351.312C811.962,345.71 796.805,344.574 784.375,342.434C765.349,339.157 731.632,333.449 707.004,331.652C683.601,329.945 660.072,332.004 636.609,331.652C608.392,331.23 566.128,329.318 537.701,329.116C513.812,328.945 489.192,330.11 466.045,330.436C443.639,330.751 419.221,331.282 398.822,331.07C380.42,330.88 362.049,329.364 343.647,329.168C323.882,328.956 297.035,332.021 280.229,329.802C267.032,328.059 251.69,322.403 242.812,315.85C234.789,309.928 229.921,300.003 226.957,290.482C223.469,279.278 221.038,262.472 221.884,248.626C222.729,234.78 226.217,217.974 232.031,207.404C237.369,197.697 246.533,189.456 256.764,185.207C269.236,180.028 291.961,178.231 306.865,176.329C319.893,174.665 333.063,174.373 346.184,173.792C362.884,173.052 388.78,173.263 407.066,171.889C423.434,170.659 442.686,171.572 455.898,165.547C468.82,159.655 479.68,147.685 486.339,135.741C492.998,123.797 494.272,108.105 495.852,93.884C497.649,77.713 497.297,51.711 497.121,38.71" style="fill:none;stroke-width:1px;stroke:black;"/>
            <path d="M1057.73,676.65C1038,676.343 998.543,675.728 968.948,676.016C936.287,676.333 890.732,677.39 861.77,678.552C839.543,679.445 815.581,683.626 795.181,682.992C776.385,682.407 753.853,678.87 739.372,674.747C728.094,671.537 715.802,666.609 708.297,658.258C700.793,649.908 695.085,635.956 694.345,624.647C693.605,613.337 698.573,598.645 703.858,590.4C708.699,582.848 717.551,578.04 726.055,575.18C737.681,571.269 758.014,570.863 773.618,566.936C789.579,562.919 808.287,559.854 821.817,551.081C835.346,542.308 847.318,528.97 854.794,514.298C863.466,497.281 872.152,470.539 873.847,448.977C875.537,427.488 869.302,402.576 864.969,384.924C861.374,370.284 857.578,354.579 847.846,343.068C838.016,331.441 822.3,319.054 805.989,315.164C782.947,309.667 741.765,310.601 709.593,310.09C676.298,309.562 638.881,312.204 606.22,311.993C575.339,311.793 536.886,309.13 513.629,308.822C497.975,308.614 482.335,310.065 466.68,310.142C443.528,310.256 400.301,309.719 374.723,309.508C354.217,309.338 329.378,309.931 313.206,308.874C301.242,308.092 287.733,306.548 277.692,303.166C268.621,300.111 257.002,297.255 252.959,288.58C247.885,277.693 244.08,251.585 247.251,237.845C250.265,224.783 261.309,211.949 271.984,206.135C282.66,200.322 298.182,203.817 311.304,202.964C327.581,201.908 350.212,201.041 369.649,199.794C389.415,198.525 411.822,197.363 429.897,195.354C446.062,193.558 464.023,195.901 478.095,187.744C492.681,179.288 509.382,159.311 517.415,144.619C524.754,131.197 525.806,114.882 526.293,99.592C527.055,75.674 523.677,25.967 521.988,1.113" style="fill:none;stroke-width:1px;stroke:black;"/>
            <path d="M1.794,618.357C25.153,620.33 71.871,624.276 96.922,620.259C116.997,617.041 136.24,606.984 152.096,594.258C168.162,581.363 179.366,558.955 193.318,542.889C206.849,527.307 220.271,509.594 235.808,497.861C250.898,486.467 268.097,476.644 286.543,472.494C307.683,467.737 337.284,470.516 362.646,469.323C389.603,468.055 422.705,466.469 448.288,464.884C470.927,463.481 501.031,467.42 516.146,459.81C530.011,452.829 535.7,433.703 538.977,419.222C542.254,404.742 541.936,382.545 535.806,372.927C529.675,363.308 513.926,363.053 502.194,361.511C483.697,359.08 448.711,358.657 424.823,358.34C402.836,358.048 379.162,359.714 358.868,359.609C340.255,359.512 321.601,359.345 303.059,357.706C283.928,356.015 259.723,355.909 244.08,349.462C229.813,343.581 217.539,332.005 209.2,319.021C200.85,306.02 195.864,287.996 193.979,271.457C192.077,254.756 191.337,234.991 197.784,218.819C204.232,202.647 219.241,184.784 232.665,174.426C245.594,164.449 262.295,159.781 278.326,156.669C296.295,153.181 319.754,154.436 340.476,153.498C363.836,152.441 398.082,155.189 418.481,150.327C435.163,146.351 454.083,139.05 462.874,124.325C471.964,109.1 471.647,73.673 473.021,58.977C473.732,51.373 471.99,41.222 471.119,36.146" style="fill:none;stroke-width:1px;stroke:black;"/>
            <path d="M1.187,642.456C24.158,644.394 70.102,648.269 96.949,643.09C120.714,638.505 143.773,626.495 162.27,611.381C180.767,596.266 193.134,568.362 207.931,552.401C220.777,538.546 235.836,525.448 251.056,515.618C265.915,506.022 281.993,497.283 299.254,493.422C320.5,488.67 352.526,488.376 378.528,487.107C404.08,485.861 429.897,487.613 455.264,485.812C480.556,484.016 512.13,485.812 530.732,476.299C548.463,467.232 560.751,445.858 566.881,428.735C573.012,411.612 570.686,388.358 567.515,373.561C564.796,360.869 560.009,344.506 547.855,339.949C529.253,332.973 480.737,333.184 455.898,331.704C436.905,330.573 417.53,331.493 398.822,331.07C380.424,330.654 362.049,329.364 343.647,329.168C323.882,328.956 297.035,332.021 280.229,329.802C267.032,328.059 251.69,322.403 242.812,315.85C234.789,309.928 229.921,300.003 226.957,290.482C223.469,279.278 221.038,262.472 221.884,248.626C222.729,234.78 226.217,217.974 232.031,207.404C237.369,197.697 246.533,189.456 256.764,185.207C269.236,180.028 291.961,178.231 306.865,176.329C319.893,174.665 333.063,174.373 346.184,173.792C362.884,173.052 388.78,173.263 407.066,171.889C423.434,170.659 442.686,171.572 455.898,165.547C468.82,159.655 479.68,147.685 486.339,135.741C492.998,123.797 494.881,108.159 495.852,93.884C496.534,83.859 496.581,68.993 496.361,53.76C496.11,36.318 495.511,18.395 495.121,6.71" style="fill:none;stroke-width:1px;stroke:black;"/>
            <path d="M3.089,664.652C27.752,665.568 77.078,667.4 100.754,665.287C116.142,663.913 131.267,658.752 145.147,651.969C159.205,645.098 174.577,636.439 185.101,624.064C196.516,610.641 203.069,585.908 213.639,571.427C223.246,558.266 236.47,545.954 248.519,537.181C259.755,529.001 272.537,522.477 285.936,518.789C301.685,514.456 323.844,512.147 343.013,511.179C363.941,510.122 391.211,512.659 411.505,512.448C429.282,512.262 447.865,510.439 464.777,509.911C480.837,509.409 497.649,513.187 512.975,509.277C528.301,505.366 544.473,496.91 556.734,486.446C568.995,475.982 580.199,460.761 586.541,446.492C592.822,432.359 594.05,416.28 594.785,400.831C595.525,385.293 594.363,365.528 590.98,353.267C588.251,343.373 582.401,333.804 574.491,327.265C566.564,320.712 554.579,315.492 543.416,313.947C526.61,311.622 496.902,313.925 473.656,313.313C445.54,312.573 401.464,310.248 374.723,309.508C354.224,308.941 329.378,309.931 313.206,308.874C301.242,308.092 287.733,306.548 277.692,303.166C268.621,300.111 257.002,297.255 252.959,288.58C247.885,277.693 244.08,251.585 247.251,237.845C250.265,224.783 261.309,211.949 271.984,206.135C282.66,200.322 298.182,203.817 311.304,202.964C327.581,201.908 350.212,201.041 369.649,199.794C389.415,198.525 411.822,197.363 429.897,195.354C446.062,193.558 464.023,195.901 478.095,187.744C492.681,179.288 509.382,159.311 517.415,144.619C524.754,131.197 525.516,114.87 526.293,99.592C526.819,89.24 526.443,74.361 525.783,59.739C525.144,45.567 524.239,31.636 523.633,22.3" style="fill:none;stroke-width:1px;stroke:black;"/>
        </g>
        <g id="Origin">
            <circle cx="15.5" cy="47.5" r="2.5" style="fill:rgb(255,0,53);"/>
        </g>
    </g>
</svg>
